<svg width="208" height="135" viewBox="0 0 208 135" fill="none" xmlns="http://www.w3.org/2000/svg">
<path d="M75 67.5C75 78.2696 66.2696 87 55.5 87C44.7304 87 36 78.2696 36 67.5C36 56.7304 44.7304 48 55.5 48C66.2696 48 75 56.7304 75 67.5Z" fill="url(#paint0_linear_123_33)"/>
<path d="M177 92.5C177 103.27 168.27 112 157.5 112C146.73 112 138 103.27 138 92.5C138 81.7304 146.73 73 157.5 73C168.27 73 177 81.7304 177 92.5Z" fill="url(#paint1_linear_123_33)"/>
<path d="M106 118.5C106 127.613 98.6127 135 89.5 135C80.3873 135 73 127.613 73 118.5C73 109.387 80.3873 102 89.5 102C98.6127 102 106 109.387 106 118.5Z" fill="url(#paint2_linear_123_33)"/>
<path d="M122 41.5C122 50.6127 114.613 58 105.5 58C96.3873 58 89 50.6127 89 41.5C89 32.3873 96.3873 25 105.5 25C114.613 25 122 32.3873 122 41.5Z" fill="url(#paint3_linear_123_33)"/>
<path d="M151 16C151 20.6944 147.194 24.5 142.5 24.5C137.806 24.5 134 20.6944 134 16C134 11.3056 137.806 7.5 142.5 7.5C147.194 7.5 151 11.3056 151 16Z" fill="url(#paint4_linear_123_33)"/>
<path d="M199 60.5C199 62.9853 196.985 65 194.5 65C192.015 65 190 62.9853 190 60.5C190 58.0147 192.015 56 194.5 56C196.985 56 199 58.0147 199 60.5Z" fill="url(#paint5_linear_123_33)"/>
<path d="M41 114.5C41 121.404 35.4036 127 28.5 127C21.5964 127 16 121.404 16 114.5C16 107.596 21.5964 102 28.5 102C35.4036 102 41 107.596 41 114.5Z" fill="url(#paint6_linear_123_33)"/>
<path d="M21 44.5C21 50.299 16.299 55 10.5 55C4.70101 55 0 50.299 0 44.5C0 38.701 4.70101 34 10.5 34C16.299 34 21 38.701 21 44.5Z" fill="url(#paint7_linear_123_33)"/>
<path d="M208 10.5C208 16.299 203.299 21 197.5 21C191.701 21 187 16.299 187 10.5C187 4.70101 191.701 0 197.5 0C203.299 0 208 4.70101 208 10.5Z" fill="url(#paint8_linear_123_33)"/>
<path d="M52 75.3542L59.7917 70L85.2679 107.074L77.4762 112.429L52 75.3542Z" fill="url(#paint9_linear_123_33)"/>
<path d="M110 45.4695L114.619 41L156.687 84.4784L152.068 88.9479L110 45.4695Z" fill="url(#paint10_linear_123_33)"/>
<path d="M141 18.9536L145.924 18L157.426 77.3954L152.502 78.349L141 18.9536Z" fill="url(#paint11_linear_123_33)"/>
<path d="M13 49.9554L15.4184 44L51.7302 58.7457L49.3119 64.701L13 49.9554Z" fill="url(#paint12_linear_123_33)"/>
<path d="M146.888 20.4858L148.726 15.9598L176.885 27.3949L175.047 31.921L146.888 20.4858Z" fill="url(#paint13_linear_123_33)"/>
<path d="M175.054 31.9234L172 28.3484L193.479 9.99995L196.533 13.575L175.054 31.9234Z" fill="url(#paint14_linear_123_33)"/>
<path d="M173 30.0505L176.28 28L196.596 60.4993L193.316 62.5498L173 30.0505Z" fill="url(#paint15_linear_123_33)"/>
<path d="M95.8943 120.998L93.2792 115.127L148.545 90.5129L151.16 96.3846L95.8943 120.998Z" fill="url(#paint16_linear_123_33)"/>
<path d="M47.3714 73L54.7681 77.3419L35.3967 110.342L28 106.001L47.3714 73Z" fill="url(#paint17_linear_123_33)"/>
<path d="M89.8916 41L94.6315 48.1481L62.74 69.2957L58 62.1476L89.8916 41Z" fill="url(#paint18_linear_123_33)"/>
<path d="M138.892 16L140.8 18.8782L108.909 40.0258L107 37.1476L138.892 16Z" fill="url(#paint19_linear_123_33)"/>
<defs>
<linearGradient id="paint0_linear_123_33" x1="210" y1="67" x2="-10.5" y2="67" gradientUnits="userSpaceOnUse">
<stop stop-color="#9A0A80"/>
<stop offset="1" stop-color="#2D76E3"/>
</linearGradient>
<linearGradient id="paint1_linear_123_33" x1="210" y1="67" x2="-10.5" y2="67" gradientUnits="userSpaceOnUse">
<stop stop-color="#9A0A80"/>
<stop offset="1" stop-color="#2D76E3"/>
</linearGradient>
<linearGradient id="paint2_linear_123_33" x1="210" y1="67" x2="-10.5" y2="67" gradientUnits="userSpaceOnUse">
<stop stop-color="#9A0A80"/>
<stop offset="1" stop-color="#2D76E3"/>
</linearGradient>
<linearGradient id="paint3_linear_123_33" x1="210" y1="67" x2="-10.5" y2="67" gradientUnits="userSpaceOnUse">
<stop stop-color="#9A0A80"/>
<stop offset="1" stop-color="#2D76E3"/>
</linearGradient>
<linearGradient id="paint4_linear_123_33" x1="210" y1="67" x2="-10.5" y2="67" gradientUnits="userSpaceOnUse">
<stop stop-color="#9A0A80"/>
<stop offset="1" stop-color="#2D76E3"/>
</linearGradient>
<linearGradient id="paint5_linear_123_33" x1="210" y1="67" x2="-10.5" y2="67" gradientUnits="userSpaceOnUse">
<stop stop-color="#9A0A80"/>
<stop offset="1" stop-color="#2D76E3"/>
</linearGradient>
<linearGradient id="paint6_linear_123_33" x1="210" y1="67" x2="-10.5" y2="67" gradientUnits="userSpaceOnUse">
<stop stop-color="#9A0A80"/>
<stop offset="1" stop-color="#2D76E3"/>
</linearGradient>
<linearGradient id="paint7_linear_123_33" x1="210" y1="67" x2="-10.5" y2="67" gradientUnits="userSpaceOnUse">
<stop stop-color="#9A0A80"/>
<stop offset="1" stop-color="#2D76E3"/>
</linearGradient>
<linearGradient id="paint8_linear_123_33" x1="210" y1="67" x2="-10.5" y2="67" gradientUnits="userSpaceOnUse">
<stop stop-color="#9A0A80"/>
<stop offset="1" stop-color="#2D76E3"/>
</linearGradient>
<linearGradient id="paint9_linear_123_33" x1="210" y1="67" x2="-10.5" y2="67" gradientUnits="userSpaceOnUse">
<stop stop-color="#9A0A80"/>
<stop offset="1" stop-color="#2D76E3"/>
</linearGradient>
<linearGradient id="paint10_linear_123_33" x1="210" y1="67" x2="-10.5" y2="67" gradientUnits="userSpaceOnUse">
<stop stop-color="#9A0A80"/>
<stop offset="1" stop-color="#2D76E3"/>
</linearGradient>
<linearGradient id="paint11_linear_123_33" x1="210" y1="67" x2="-10.5" y2="67" gradientUnits="userSpaceOnUse">
<stop stop-color="#9A0A80"/>
<stop offset="1" stop-color="#2D76E3"/>
</linearGradient>
<linearGradient id="paint12_linear_123_33" x1="210" y1="67" x2="-10.5" y2="67" gradientUnits="userSpaceOnUse">
<stop stop-color="#9A0A80"/>
<stop offset="1" stop-color="#2D76E3"/>
</linearGradient>
<linearGradient id="paint13_linear_123_33" x1="210" y1="67" x2="-10.5" y2="67" gradientUnits="userSpaceOnUse">
<stop stop-color="#9A0A80"/>
<stop offset="1" stop-color="#2D76E3"/>
</linearGradient>
<linearGradient id="paint14_linear_123_33" x1="210" y1="67" x2="-10.5" y2="67" gradientUnits="userSpaceOnUse">
<stop stop-color="#9A0A80"/>
<stop offset="1" stop-color="#2D76E3"/>
</linearGradient>
<linearGradient id="paint15_linear_123_33" x1="210" y1="67" x2="-10.5" y2="67" gradientUnits="userSpaceOnUse">
<stop stop-color="#9A0A80"/>
<stop offset="1" stop-color="#2D76E3"/>
</linearGradient>
<linearGradient id="paint16_linear_123_33" x1="210" y1="67" x2="-10.5" y2="67" gradientUnits="userSpaceOnUse">
<stop stop-color="#9A0A80"/>
<stop offset="1" stop-color="#2D76E3"/>
</linearGradient>
<linearGradient id="paint17_linear_123_33" x1="210" y1="67" x2="-10.5" y2="67" gradientUnits="userSpaceOnUse">
<stop stop-color="#9A0A80"/>
<stop offset="1" stop-color="#2D76E3"/>
</linearGradient>
<linearGradient id="paint18_linear_123_33" x1="210" y1="67" x2="-10.5" y2="67" gradientUnits="userSpaceOnUse">
<stop stop-color="#9A0A80"/>
<stop offset="1" stop-color="#2D76E3"/>
</linearGradient>
<linearGradient id="paint19_linear_123_33" x1="210" y1="67" x2="-10.5" y2="67" gradientUnits="userSpaceOnUse">
<stop stop-color="#9A0A80"/>
<stop offset="1" stop-color="#2D76E3"/>
</linearGradient>
</defs>
</svg>
